<svg width="109" height="86" viewBox="0 0 109 86" fill="none" xmlns="http://www.w3.org/2000/svg">
<path opacity="0.4" d="M0.505371 77.9376V83.3125C0.505371 84.0253 0.789119 84.7089 1.29419 85.2129C1.79927 85.7169 2.4843 86 3.19858 86H59.756V75.2501H3.19858C2.4843 75.2501 1.79927 75.5333 1.29419 76.0373C0.789119 76.5413 0.505371 77.2248 0.505371 77.9376H0.505371ZM105.541 75.2501H92.0745V19.0568C92.0745 14.478 88.4504 10.7508 83.9949 10.7508H65.1424V21.5007H81.3017V86H105.541C106.255 86 106.94 85.7169 107.445 85.2129C107.95 84.7089 108.234 84.0253 108.234 83.3125V77.9376C108.234 77.2248 107.95 76.5413 107.445 76.0373C106.94 75.5333 106.255 75.2501 105.541 75.2501Z" fill="#FFB7D6"/>
<path d="M53.0628 0.168908L20.7443 8.52358C18.3473 9.14506 16.6641 11.3723 16.6641 13.9288V75.2501H59.7554V5.57408C59.7554 1.94936 56.463 -0.70956 53.0628 0.168908ZM44.9428 48.3754C42.7124 48.3754 40.9029 45.9685 40.9029 43.0005C40.9029 40.0325 42.7124 37.6255 44.9428 37.6255C47.1731 37.6255 48.9826 40.0325 48.9826 43.0005C48.9826 45.9685 47.1731 48.3754 44.9428 48.3754Z" fill="#FF4398"/>
</svg>
