<svg width="340" height="504" viewBox="0 0 340 504" fill="none" xmlns="http://www.w3.org/2000/svg">
<g filter="url(#filter0_bdd)">
<rect width="246.121" height="382" rx="20" transform="matrix(0.983255 -0.182236 0 1 50 61.8521)" fill="white" fill-opacity="0.4" shape-rendering="crispEdges"/>
</g>
<g filter="url(#filter1_bdd)">
<rect x="50" y="61.8521" width="260" height="382" rx="20" fill="white" fill-opacity="0.7" shape-rendering="crispEdges"/>
</g>
<path opacity="0.4" d="M131.505 187.938V193.313C131.505 194.025 131.789 194.709 132.294 195.213C132.799 195.717 133.484 196 134.199 196H190.756V185.25H134.199C133.484 185.25 132.799 185.533 132.294 186.037C131.789 186.541 131.505 187.225 131.505 187.938V187.938ZM236.541 185.25H223.074V129.057C223.074 124.478 219.45 120.751 214.995 120.751H196.142V131.501H212.302V196H236.541C237.255 196 237.94 195.717 238.445 195.213C238.95 194.709 239.234 194.025 239.234 193.313V187.938C239.234 187.225 238.95 186.541 238.445 186.037C237.94 185.533 237.255 185.25 236.541 185.25Z" fill="#FFB7D6"/>
<path d="M184.063 110.169L151.744 118.524C149.347 119.145 147.664 121.372 147.664 123.929V185.25H190.755V115.574C190.755 111.949 187.463 109.29 184.063 110.169ZM175.943 158.375C173.712 158.375 171.903 155.968 171.903 153C171.903 150.033 173.712 147.626 175.943 147.626C178.173 147.626 179.983 150.033 179.983 153C179.983 155.968 178.173 158.375 175.943 158.375Z" fill="#FF4398"/>
<path d="M175.938 419.993C178.078 419.993 179.445 418.297 179.445 415.594V415.579C179.445 412.86 178.102 411.172 175.938 411.172C174.766 411.172 173.789 411.75 173.344 412.672H173.211V408.008H171.266V419.852H173.211V418.516H173.344C173.812 419.446 174.742 419.993 175.938 419.993ZM175.328 418.352C174.008 418.352 173.188 417.305 173.188 415.594V415.579C173.188 413.868 174.008 412.813 175.328 412.813C176.656 412.813 177.461 413.86 177.461 415.579V415.594C177.461 417.313 176.656 418.352 175.328 418.352ZM181.961 422.852C183.852 422.852 184.828 422.172 185.562 420.032L188.625 411.313H186.578L184.594 417.985H184.445L182.453 411.313H180.328L183.383 419.86L183.281 420.25C183.07 421.024 182.594 421.352 181.797 421.352C181.594 421.352 181.375 421.344 181.219 421.329V422.821C181.453 422.844 181.727 422.852 181.961 422.852ZM193.93 419.852H196.039L196.977 416.938H201.148L202.094 419.852H204.203L200.203 408.579H197.93L193.93 419.852ZM199 410.672H199.133L200.648 415.383H197.484L199 410.672ZM208.961 420.024C211.062 420.024 212.586 418.938 212.586 417.313V417.297C212.586 416.055 211.797 415.344 210.125 414.969L208.742 414.665C207.82 414.454 207.461 414.149 207.461 413.649V413.641C207.461 413 208.086 412.579 208.953 412.579C209.867 412.579 210.43 413.016 210.57 413.555L210.578 413.579H212.406V413.563C212.281 412.18 211.039 411.149 208.961 411.149C206.945 411.149 205.539 412.211 205.539 413.75V413.758C205.539 415.016 206.312 415.782 207.938 416.141L209.32 416.454C210.258 416.665 210.633 416.993 210.633 417.493V417.508C210.633 418.149 209.961 418.586 208.992 418.586C208.023 418.586 207.453 418.172 207.25 417.579L207.242 417.563H205.312V417.579C205.477 419.024 206.789 420.024 208.961 420.024ZM217.844 419.891C218.219 419.891 218.578 419.86 218.859 419.805V418.305C218.625 418.329 218.477 418.336 218.203 418.336C217.391 418.336 217.055 417.977 217.055 417.125V412.821H218.859V411.313H217.055V409.219H215.078V411.313H213.75V412.821H215.078V417.586C215.078 419.235 215.883 419.891 217.844 419.891ZM220.797 419.852H222.742V414.891C222.742 413.672 223.594 412.899 224.891 412.899C225.227 412.899 225.547 412.946 225.859 413.008V411.266C225.672 411.211 225.367 411.172 225.07 411.172C223.945 411.172 223.164 411.711 222.875 412.625H222.742V411.313H220.797V419.852ZM230.922 420.024C233.477 420.024 235.031 418.352 235.031 415.586V415.571C235.031 412.821 233.469 411.149 230.922 411.149C228.383 411.149 226.812 412.829 226.812 415.571V415.586C226.812 418.352 228.359 420.024 230.922 420.024ZM230.922 418.446C229.57 418.446 228.797 417.391 228.797 415.594V415.579C228.797 413.782 229.57 412.719 230.922 412.719C232.266 412.719 233.039 413.782 233.039 415.579V415.594C233.039 417.391 232.273 418.446 230.922 418.446ZM240.344 419.891C240.719 419.891 241.078 419.86 241.359 419.805V418.305C241.125 418.329 240.977 418.336 240.703 418.336C239.891 418.336 239.555 417.977 239.555 417.125V412.821H241.359V411.313H239.555V409.219H237.578V411.313H236.25V412.821H237.578V417.586C237.578 419.235 238.383 419.891 240.344 419.891ZM246.906 420.024C249.461 420.024 251.016 418.352 251.016 415.586V415.571C251.016 412.821 249.453 411.149 246.906 411.149C244.367 411.149 242.797 412.829 242.797 415.571V415.586C242.797 418.352 244.344 420.024 246.906 420.024ZM246.906 418.446C245.555 418.446 244.781 417.391 244.781 415.594V415.579C244.781 413.782 245.555 412.719 246.906 412.719C248.25 412.719 249.023 413.782 249.023 415.579V415.594C249.023 417.391 248.258 418.446 246.906 418.446ZM252.969 419.852H254.914V414.657C254.914 413.594 255.617 412.782 256.578 412.782C257.531 412.782 258.117 413.368 258.117 414.313V419.852H260.062V414.516C260.062 413.54 260.719 412.782 261.734 412.782C262.773 412.782 263.281 413.344 263.281 414.454V419.852H265.227V413.977C265.227 412.204 264.195 411.149 262.477 411.149C261.289 411.149 260.305 411.758 259.891 412.688H259.758C259.391 411.743 258.547 411.149 257.391 411.149C256.273 411.149 255.414 411.688 255.047 412.641H254.914V411.313H252.969V419.852ZM268.531 409.883C269.164 409.883 269.688 409.375 269.688 408.735C269.688 408.102 269.164 407.586 268.531 407.586C267.891 407.586 267.367 408.102 267.367 408.735C267.367 409.375 267.891 409.883 268.531 409.883ZM267.555 419.852H269.5V411.313H267.555V419.852ZM275.555 420.024C277.719 420.024 278.977 418.86 279.258 417.11L279.273 417.047L277.438 417.055L277.422 417.086C277.18 417.985 276.562 418.446 275.555 418.446C274.234 418.446 273.445 417.383 273.445 415.571V415.555C273.445 413.766 274.227 412.719 275.555 412.719C276.617 412.719 277.25 413.313 277.43 414.141L277.438 414.165H279.273V414.133C279.055 412.368 277.742 411.149 275.547 411.149C272.977 411.149 271.469 412.797 271.469 415.555V415.571C271.469 418.36 272.984 420.024 275.555 420.024Z" fill="#6C7280"/>
<path d="M96.459 246.239C102.154 246.239 105.793 242.583 105.793 236.43V236.395C105.793 230.295 102.084 226.622 96.4414 226.622C90.8164 226.622 87.125 230.331 87.125 236.395V236.43C87.125 242.565 90.7285 246.239 96.459 246.239ZM96.4766 242.213C93.9453 242.213 92.3457 240.122 92.3457 236.43V236.395C92.3457 232.756 93.9629 230.647 96.4414 230.647C98.9375 230.647 100.572 232.756 100.572 236.395V236.43C100.572 240.104 98.9727 242.213 96.4766 242.213ZM108.447 252.004H113.58V242.635H113.686C114.705 244.868 116.832 246.239 119.521 246.239C124.232 246.239 127.15 242.547 127.15 236.43V236.413C127.15 230.278 124.232 226.622 119.451 226.622C116.779 226.622 114.723 228.01 113.703 230.295H113.58V227.008H108.447V252.004ZM117.764 241.985C115.268 241.985 113.562 239.84 113.562 236.448V236.43C113.562 233.02 115.268 230.875 117.764 230.875C120.312 230.875 121.93 232.967 121.93 236.413V236.43C121.93 239.858 120.312 241.985 117.764 241.985ZM138.4 246.239C143.779 246.239 146.381 243.057 146.961 240.28L147.014 240.086H142.303L142.268 240.192C141.898 241.247 140.615 242.407 138.506 242.407C135.887 242.407 134.252 240.649 134.199 237.643H147.172V236.061C147.172 230.366 143.709 226.622 138.189 226.622C132.67 226.622 129.137 230.454 129.137 236.448V236.465C129.137 242.495 132.635 246.239 138.4 246.239ZM138.277 230.454C140.404 230.454 141.934 231.807 142.25 234.409H134.252C134.586 231.86 136.168 230.454 138.277 230.454ZM149.826 245.852H154.959V235.024C154.959 232.563 156.418 230.875 158.721 230.875C161.023 230.875 162.184 232.282 162.184 234.743V245.852H167.316V233.688C167.316 229.276 164.961 226.622 160.812 226.622C157.965 226.622 156.031 227.94 155.064 230.102H154.959V227.008H149.826V245.852ZM177.547 246.239C180.271 246.239 182.346 244.868 183.348 242.635H183.453V245.852H188.586V220.487H183.453V230.278H183.348C182.328 227.993 180.219 226.622 177.547 226.622C172.801 226.622 169.883 230.278 169.883 236.413V236.43C169.883 242.547 172.801 246.239 177.547 246.239ZM179.27 241.985C176.703 241.985 175.104 239.858 175.104 236.43V236.413C175.104 232.967 176.721 230.875 179.27 230.875C181.748 230.875 183.471 233.02 183.471 236.413V236.43C183.471 239.84 181.766 241.985 179.27 241.985ZM200.662 246.239C206.357 246.239 209.996 242.583 209.996 236.43V236.395C209.996 230.295 206.287 226.622 200.645 226.622C195.02 226.622 191.328 230.331 191.328 236.395V236.43C191.328 242.565 194.932 246.239 200.662 246.239ZM200.68 242.213C198.148 242.213 196.549 240.122 196.549 236.43V236.395C196.549 232.756 198.166 230.647 200.645 230.647C203.141 230.647 204.775 232.756 204.775 236.395V236.43C204.775 240.104 203.176 242.213 200.68 242.213ZM212.65 245.852H217.783V235.305C217.783 232.563 219.26 231.051 221.791 231.051C222.529 231.051 223.232 231.157 223.654 231.333V226.815C223.268 226.709 222.74 226.622 222.178 226.622C219.98 226.622 218.451 227.975 217.889 230.295H217.783V227.008H212.65V245.852Z" fill="black"/>
<path d="M228.436 246.151C230.018 246.151 231.283 244.885 231.283 243.303C231.283 241.704 230.018 240.456 228.436 240.456C226.836 240.456 225.588 241.704 225.588 243.303C225.588 244.885 226.836 246.151 228.436 246.151ZM234.447 245.852H239.58V234.479C239.58 232.352 240.898 230.875 242.85 230.875C244.748 230.875 245.891 232.071 245.891 234.092V245.852H250.83V234.391C250.83 232.299 252.113 230.875 254.064 230.875C256.051 230.875 257.141 232.071 257.141 234.25V245.852H262.273V232.967C262.273 229.17 259.795 226.622 256.104 226.622C253.344 226.622 251.094 228.133 250.25 230.506H250.145C249.512 228.028 247.596 226.622 244.959 226.622C242.428 226.622 240.459 228.028 239.686 230.172H239.58V227.008H234.447V245.852ZM274.104 246.239C279.482 246.239 282.084 243.057 282.664 240.28L282.717 240.086H278.006L277.971 240.192C277.602 241.247 276.318 242.407 274.209 242.407C271.59 242.407 269.955 240.649 269.902 237.643H282.875V236.061C282.875 230.366 279.412 226.622 273.893 226.622C268.373 226.622 264.84 230.454 264.84 236.448V236.465C264.84 242.495 268.338 246.239 274.104 246.239ZM273.98 230.454C276.107 230.454 277.637 231.807 277.953 234.409H269.955C270.289 231.86 271.871 230.454 273.98 230.454Z" fill="#6C7280"/>
<defs>
<filter id="filter0_bdd" x="0" y="-9.68821" width="322" height="510.228" filterUnits="userSpaceOnUse" color-interpolation-filters="sRGB">
<feFlood flood-opacity="0" result="BackgroundImageFix"/>
<feGaussianBlur in="BackgroundImage" stdDeviation="15"/>
<feComposite in2="SourceAlpha" operator="in" result="effect1_backgroundBlur"/>
<feColorMatrix in="SourceAlpha" type="matrix" values="0 0 0 0 0 0 0 0 0 0 0 0 0 0 0 0 0 0 127 0" result="hardAlpha"/>
<feOffset dx="-10" dy="20"/>
<feGaussianBlur stdDeviation="20"/>
<feComposite in2="hardAlpha" operator="out"/>
<feColorMatrix type="matrix" values="0 0 0 0 0 0 0 0 0 0 0 0 0 0 0 0 0 0 0.1 0"/>
<feBlend mode="normal" in2="effect1_backgroundBlur" result="effect2_dropShadow"/>
<feColorMatrix in="SourceAlpha" type="matrix" values="0 0 0 0 0 0 0 0 0 0 0 0 0 0 0 0 0 0 127 0" result="hardAlpha"/>
<feOffset/>
<feGaussianBlur stdDeviation="1"/>
<feComposite in2="hardAlpha" operator="out"/>
<feColorMatrix type="matrix" values="0 0 0 0 0 0 0 0 0 0 0 0 0 0 0 0 0 0 0.15 0"/>
<feBlend mode="normal" in2="effect2_dropShadow" result="effect3_dropShadow"/>
<feBlend mode="normal" in="SourceGraphic" in2="effect3_dropShadow" result="shape"/>
</filter>
<filter id="filter1_bdd" x="0" y="31.8521" width="340" height="472" filterUnits="userSpaceOnUse" color-interpolation-filters="sRGB">
<feFlood flood-opacity="0" result="BackgroundImageFix"/>
<feGaussianBlur in="BackgroundImage" stdDeviation="15"/>
<feComposite in2="SourceAlpha" operator="in" result="effect1_backgroundBlur"/>
<feColorMatrix in="SourceAlpha" type="matrix" values="0 0 0 0 0 0 0 0 0 0 0 0 0 0 0 0 0 0 127 0" result="hardAlpha"/>
<feOffset dx="-10" dy="20"/>
<feGaussianBlur stdDeviation="20"/>
<feComposite in2="hardAlpha" operator="out"/>
<feColorMatrix type="matrix" values="0 0 0 0 0 0 0 0 0 0 0 0 0 0 0 0 0 0 0.1 0"/>
<feBlend mode="normal" in2="effect1_backgroundBlur" result="effect2_dropShadow"/>
<feColorMatrix in="SourceAlpha" type="matrix" values="0 0 0 0 0 0 0 0 0 0 0 0 0 0 0 0 0 0 127 0" result="hardAlpha"/>
<feOffset/>
<feGaussianBlur stdDeviation="1"/>
<feComposite in2="hardAlpha" operator="out"/>
<feColorMatrix type="matrix" values="0 0 0 0 0 0 0 0 0 0 0 0 0 0 0 0 0 0 0.15 0"/>
<feBlend mode="normal" in2="effect2_dropShadow" result="effect3_dropShadow"/>
<feBlend mode="normal" in="SourceGraphic" in2="effect3_dropShadow" result="shape"/>
</filter>
</defs>
</svg>
